<svg height="700pt" preserveAspectRatio="xMidYMid meet" viewBox="0 0 700 700" width="700pt" xmlns="http://www.w3.org/2000/svg"><g transform="matrix(.1 0 0 -.1 0 700)"><path d="m1778 6941c-118-38-141-65-322-366l-151-251-105 29c-155 42-199 50-262 44-115-10-221-86-275-195-35-72-41-190-14-262 15-38 87-156 111-180 14-14 70-90 70-94 0-3-17-6-37-6-33-1-64-6-188-35-11-2-57-23-102-45-244-121-375-418-304-691 41-157 104-253 286-432l106-104-69-56c-146-120-237-240-273-360-61-206-19-387 121-527 45-44 113-93 213-154 128-77 158-101 129-101-17 0-111-62-150-99-23-22-53-62-67-90-29-61-49-179-40-242 13-97 86-194 183-247 26-13 243-97 482-186s469-175 510-190c41-16 172-65 290-109s326-121 461-172l246-92-52-74c-120-167-113-266 26-374 389-303 767-405 1145-309l81 21 134-65c338-163 660-252 921-256l46-1-3-127c-3-134 14-248 41-287 31-45 27-45-204-44-119 0-227-2-239-6-20-6-33-27-39-64-1-7 8-25 21-40l23-26 678-2c374 0 689 3 702 7 42 16 48 96 9 121-7 4-96 8-199 8h-188l-49 48c-93 90-118 160-120 345l-2 125 48 18c300 111 464 212 651 403 120 122 192 219 274 371 32 58 107 235 112 264 1 6 10 36 19 67 19 65 33 78 182 163 178 103 245 168 245 242 0 39-36 95-83 129-23 17-98 61-167 98-145 80-157 89-166 131-15 72-69 228-111 316-202 435-646 786-1106 876-139 27-224 35-360 35-97 0-107 2-103 17 9 31 47 166 66 232 9 36 59 211 110 390 92 319 94 327 94 435 1 103-1 113-27 157-33 57-94 101-170 123-132 38-269-20-386-165l-20-25-2 70c-1 71-4 142-13 340-16 332-185 484-493 443-176-24-337-112-404-222-10-17-19-28-19-24s-18 85-41 180c-22 95-43 183-45 194-21 107-69 265-96 316-89 168-272 288-440 288-186 0-403-129-478-284l-28-60-14 35c-8 19-54 135-103 259-113 287-143 333-257 385-76 35-173 41-250 16zm208-147c45-28 83-75 103-129 11-27 89-228 174-445s158-406 162-420c7-25 195-507 220-565 7-16 153-376 323-800 171-423 335-831 366-905l55-135-62-60c-51-49-164-178-224-255-55-70-106-131-108-128-1 2-91 125-200 273-109 149-285 387-390 530s-330 449-500 680c-169 231-322 439-339 462s-39 52-48 65c-17 23-348 473-462 628-288 391-287 389-288 459 0 118 87 212 200 212 26 1 88-11 137-25 50-14 128-37 175-50 47-14 88-22 91-18 4 4 83 135 177 292 93 157 181 295 194 307s39 29 58 38c45 20 146 15 186-11zm1050-373c73-34 141-98 183-169 26-44 69-183 87-280 3-13 20-87 39-165 40-167 92-389 110-467 7-30 41-172 75-315s63-267 65-275c16-73 33-145 79-335 74-303 127-527 131-545 2-8 14-58 28-111l24-96-56-27c-31-15-109-57-174-93s-120-64-121-62c-7 9-581 1434-804 1999-77 195-148 384-157 419-31 123-24 288 17 366 52 98 211 184 343 185 57 0 81-5 131-29zm1094-703c57-17 106-56 133-106 43-80 44-86 62-587 17-461 31-1133 26-1216-1-11-14-19-38-23-83-13-102-18-211-48-62-17-114-29-116-27s-13 47-25 99-23 102-25 110c-8 30-88 356-92 375-2 11-31 133-64 270-86 356-138 583-145 634-11 75-8 233 5 296 10 51 19 67 60 106 26 25 73 58 105 73 100 48 247 67 325 44zm-3258-210c40-12 137-97 186-163 12-16 196-266 408-555 213-289 435-590 493-669s133-180 166-225c33-44 224-304 424-576s367-500 372-505c4-6 3-33-2-60-12-62-20-114-34-216-6-50-7-183-1-238 3-31-25-5-338 306-771 768-1733 1721-1904 1889-203 198-265 279-302 394-70 218 27 469 218 566 112 57 232 77 314 52zm3992-459c29-13 48-31 56-50 15-34 14-120 0-185-18-79-272-969-278-976-4-3-40-9-79-13l-73-7v119c-1 65-3 226-7 358-3 132-6 285-6 340l-2 100 54 102c108 204 212 270 335 212zm-4147-828c10-5 1958-1937 2109-2091 59-60 62-65 47-82-8-10-18-16-22-14-14 8-1239 760-1271 781-104 68-463 286-496 301-22 10-140 80-263 156s-226 138-228 138-24 14-49 30c-155 107-214 250-174 420 25 111 93 205 235 328 59 51 72 55 112 33zm4359-526c408-41 790-264 1035-605 84-117 171-299 213-448 20-68 44-134 53-147 22-29 115-91 203-135 36-18 89-48 119-67l54-35-29-27c-16-15-89-63-162-107-74-43-148-94-167-112-37-37-40-43-86-192-130-416-451-754-871-916-229-89-509-118-738-78-19 3-46 8-60 10-161 29-393 106-575 192l-79 38 44 26c25 14 86 50 135 80 50 30 135 79 190 108 169 90 328 183 358 210 37 33 40 85 6 113-54 43-141 9-384-154-184-122-189-126-232-150-15-8-85-48-155-87-141-81-177-96-293-121-258-57-560 17-840 204-90 61-114 79-166 125-27 24-28 26-14 64 25 72 78 137 279 346 208 215 234 274 167 369-66 92-63 316 5 519 87 255 305 519 554 670 63 38 231 125 278 143 12 5 32 13 45 19 70 30 295 92 382 105 22 3 83 12 135 20s151 18 220 21c69 4 126 8 128 9 5 4 179-3 248-10zm-4120-680c33-10 1139-678 1439-869 28-18 123-77 213-131 89-55 162-102 162-105 0-4-12-20-27-37l-28-31-480 179c-264 99-705 263-980 365s-518 195-540 206c-86 45-125 101-125 180 1 99 34 165 109 220 65 46 153 54 257 23zm4269-2452c3-142 22-216 75-301l29-47-72-3c-83-3-106 6-142 59-45 63-55 118-52 265 2 73 5 135 8 138 2 3 34 8 69 12 36 3 67 8 69 10 11 10 14-14 16-133z"/><path d="m5665 2879c-69-11-110-24-159-53-215-126-278-404-139-613 181-273 602-241 741 57 35 74 36 80 37 195 0 94-2 105-34 170-85 173-266 272-446 244zm-89-201c-75-131-35-295 91-376 46-29 128-52 169-46 59 9 90 17 113 32l26 17-23-32c-52-73-167-121-265-109-228 28-338 303-190 476 30 34 87 80 101 80 2 0-8-19-22-42z"/></g></svg>