<svg width="512" height="512" xmlns="http://www.w3.org/2000/svg">
  <g transform="translate(13 3)" fill="none" fill-rule="evenodd">
    <path d="M186.913 380.144l11.29-12.206L68.14 287.74c-9.59-5.948-24.144-7.624-30.57-3.329-8.818 5.893-11.261 9.51-12.431 19.82-1.094 9.64 4.502 17.172 15.05 21.19l146.724 54.722z" stroke="#000" stroke-width="10"/>
    <path d="M23.452 261.15l173.404 106.32 8.378-10.115C110.408 263.257 63.257 216.35 61.314 214.169a646.386 646.386 0 0 0-3.35-3.746c-5.975-6.618-10.178-10.675-14.198-13.394-4.489-3.036-7.806-3.719-10.562-2.334-13.35 10.241-20.947 19.263-22.931 26.688l-1.259 4.72v.003c-3.502 13.108 2.264 27.214 14.438 35.043z" stroke="#000" stroke-width="10"/>
    <path d="M204.263 356.192c.375-2.188.063-5.496-.746-11.442-1.072-7.875-1.359-13.062-.65-19.457a278.5 278.5 0 0 1 .608-5.08c.837-6.46 1.722-11.419 2.676-15.572a111.526 111.526 0 0 1 .487-2.033L73.382 121.942l-.097-.137C61.89 105.22 53.486 98.751 42.921 100.19c-20.813 2.836-32.02 13.225-36.686 30.622-3.844 14.33 1.56 30.693 13.396 42.34l184.632 183.04zM308.762 163.493c5.65-12.809 10.394-20.91 14.232-24.304 5.758-5.091 13.186-8.387 22.172-4.125 8.987 4.263 8.63 12.908 6.421 24.187l-20.58 72.515" stroke="#000" stroke-width="10"/>
    <path d="M248.228 133.209c0-4.255-4.13-26.577 4.046-35.963 9.942-11.415 28.199-13.456 37.402-11.708 9.203 1.747 17.595 11.41 17.502 26.328 1.66 38.397 3.273 84 3.273 124.152" stroke="#000" stroke-width="10"/>
    <path d="M240.862 261.86l34.023-18.169c-9.38-37.97-23.948-99.08-43.726-183.423-2.916-13.548-12.715-24.162-25.125-27.497-11.6-3.116-27.873 3.63-35.392 14.365-5.982 8.54-4.932 27.254.592 42.143 2.921 7.873 26.184 65.534 69.628 172.58z" stroke="#000" stroke-width="10"/>
    <path d="M206.131 301.734c10.184-12.961 16.559-20.946 19.188-24.03 5.488-6.44 10.714-11.522 15.714-15.247-23.64-57.772-56.068-139.268-97.29-244.495a20.399 20.399 0 0 0-8.512-10.059c-9.665-5.789-22.193-2.647-27.982 7.017l-22.52 37.596-20.731-5.914a20.4 20.4 0 0 0-17.674 3.176c-9.08 6.67-11.033 19.436-4.363 28.515l164.17 223.441z" stroke="#000" stroke-width="10"/>
    <path d="M374.16 455c0 16.756-2.679 29.011 13.84 42M352.795 456c0 13.475-5.028 31.555 10.205 42M320 498.408l97 .184" stroke="#000" stroke-width="10" stroke-linecap="round"/>
    <path d="M346.69 455c-23.356 0-51.853-9.075-78.265-23.677-2.694-1.49 67.867-36.674 60.095-35.761-9.798 1.15-20.946 12.678-49.526 29.463-50.505 29.661-95.853-11.524-102.02-16.275-16.204-12.483 39.414-48.75 32.362-56.298C191.65 333.52 209.284 233 346.69 233c53.972 0 99.019 37.933 109.538 88.4C457.75 328.696 486 336.255 486 344c0 8.624-28.442 17.018-30.318 25.077C444.227 418.302 399.777 455 346.69 455z" stroke="#000" stroke-width="10"/>
    <circle stroke="#000" stroke-width="10" cx="405.5" cy="329.5" r="26.5"/>
    <circle fill="#000" fill-rule="nonzero" cx="412.5" cy="323.5" r="20.5"/>
  </g>
</svg>
