<svg xmlns="http://www.w3.org/2000/svg" viewBox="0 0 512 512"><circle fill="#FFCF53" cx="329.11" cy="37.955" r="29.185"/><path fill="#C2F4FF" d="M188.825 132.463c0 10.73-8.699 19.537-19.429 19.537H91.298c-8.189 0-14.827-6.746-14.827-14.935s6.638-14.935 14.827-14.935c1.235 0 2.429.168 3.576.452a15.392 15.392 0 0 1-.408-3.471c0-8.497 6.888-15.386 15.386-15.386 3.225 0 6.216.996 8.689 2.692 2.885-11.122 12.99-19.334 25.014-19.334 14.272 0 25.842 11.57 25.842 25.842 10.73.001 19.428 8.808 19.428 19.538zm236.278-45.222c-1.851 0-3.648.229-5.368.654.384-1.674.594-3.414.594-5.204 0-12.807-10.382-23.19-23.19-23.19-4.861 0-9.37 1.498-13.097 4.054-4.35-16.761-19.579-29.137-37.701-29.137-21.511 0-38.949 17.438-38.949 38.949-16.173 0-29.284 13.143-29.284 29.316s13.111 29.316 29.284 29.316h117.712c12.342 0 22.347-10.038 22.347-22.38-.001-12.34-10.006-22.378-22.348-22.378z"/><path fill="#76DFFF" d="M456.268 302.959c0-33.165-26.885-59.959-60.05-59.959H240.087c-33.165 0-60.05 26.835-60.05 60s26.885 60 60.05 60h53.362c-29.085 0-37.439 22-38.699 50h-33.295c-25.285 0-45.782 20.715-45.782 46s20.497 46 45.782 46h99.679c12.736 0 24.253-5.137 32.552-13.531 12.455-9.43 28.646-10.469 58.943-10.469h34.714c32.544 0 58.925-26.461 58.925-59.005 0-83.677-50-65.197-50-119.036z"/><path fill="#F9E7C0" d="M294.098 373.867c0 33.165-7.531 60.05-40.696 60.05H121.109c-33.165 0-60.05-26.885-60.05-60.05 0-33.165 26.885-60.05 60.05-60.05h132.293c33.165 0 40.696 26.886 40.696 60.05z"/><path fill="#F9E7C0" d="M350.18 326.659a7.639 7.639 0 0 0-1.525-1.239l-.967-.601a59.979 59.979 0 0 0-3.731-2.414c-9.645-6.463-25.489-19.012-28.666-35.652-.635-24.738-20.868-44.753-45.753-44.753h-99.679c-17.453 0-32.621 10-40.345 24H56.258c-28.441 0-51.496 23.193-51.496 51.634 0 74.567 34.691 38.901 34.691 126.351 0 33.165 26.885 60.015 60.05 60.015h60.72c2.536 1 5.14 1 7.801 1h99.679c25.285 0 45.782-20.556 45.782-45.84 0-11.579 19.874-24.349 31.483-34.214 17.024-10.6 28.361-29.457 28.361-50.987-.001-19.248-9.067-36.336-23.149-47.3z"/><ellipse fill="#E5D4B1" cx="194.161" cy="356.367" rx="123.992" ry="31.333"/><path fill="#FF473E" d="M318.606 203.349L78.931 366.162c-4.106 2.789-9.878.426-10.576-4.488-19.171-135.02 131.519-237.416 249.977-169.809 4.311 2.46 4.38 8.695.274 11.484z"/><path fill="#597B91" d="M250.406 356s-.087-.424-.272-.69L143.862 202.809c-.483-.693-1.437-.819-2.129-.335-.693.483-.863 1.275-.381 1.968L247.015 356h3.391z"/><path fill="#FD8C97" d="M144.394 198.939s2.023.524 5.408 1.548c3.246 1.121 7.994 2.646 13.493 4.613 5.407 2.032 11.488 4.56 17.83 7.39 6.198 2.93 12.896 5.995 19.076 9.421 3.1 1.706 6.383 3.284 9.284 5.068 2.904 1.782 5.89 3.447 8.549 5.218 5.296 3.558 10.091 6.982 13.75 10.231C239.275 248.805 243 254.75 243 254.75l-88.249 59.974s-3.412-4.676-6.796-13.914c-1.778-4.559-3.327-10.243-4.828-16.445-.74-3.108-1.265-6.486-1.93-9.828-.668-3.34-1.01-6.966-1.535-10.465-1.07-6.984-1.622-14.33-2.221-21.159-.454-6.93-.718-13.51-.748-19.286.062-5.84.278-10.822.352-14.255.213-3.53.424-5.609.424-5.609l6.925-4.824z"/><path fill="#00B1FF" d="M454.55 446.306a22.614 22.614 0 0 1-20.716 13.565c-8.5 0-16.233-4.774-20.093-12.272-3.859 7.498-11.592 12.272-20.093 12.272a22.617 22.617 0 0 1-20.716-13.565.681.681 0 0 1 1.247-.545 21.256 21.256 0 0 0 19.47 12.751 21.255 21.255 0 0 0 19.47-12.751c.015-.033.041-.056.06-.086.026-.042.049-.084.084-.12.041-.041.089-.068.138-.097.024-.015.042-.037.069-.048.003-.002.007-.001.01-.002.054-.023.111-.029.169-.037.031-.004.062-.017.093-.017s.062.013.093.017c.058.008.115.015.168.037.004.002.007.001.011.002.028.012.046.035.071.05.047.029.095.055.135.095.035.036.058.079.084.121.019.03.045.052.06.085a21.256 21.256 0 0 0 19.47 12.751 21.255 21.255 0 0 0 19.47-12.751.678.678 0 0 1 .896-.351c.343.151.5.552.35.896zm17.155-80.506a.655.655 0 0 0-.863.338 20.483 20.483 0 0 1-18.761 12.285 20.48 20.48 0 0 1-18.76-12.285c-.014-.033-.04-.055-.059-.084-.025-.039-.046-.08-.08-.114-.036-.036-.079-.059-.122-.086-.027-.017-.047-.041-.077-.054-.004-.002-.009-.001-.013-.003-.047-.02-.098-.024-.149-.032-.034-.005-.067-.018-.101-.018s-.068.013-.102.019c-.05.008-.1.012-.147.032l-.014.003c-.032.014-.054.04-.083.058-.04.025-.081.047-.115.081-.035.035-.057.077-.083.117-.018.028-.043.05-.057.081a20.48 20.48 0 0 1-18.76 12.285.656.656 0 0 0 0 1.31c8.191 0 15.642-4.6 19.36-11.824a21.782 21.782 0 0 0 19.36 11.824 21.796 21.796 0 0 0 19.962-13.07.653.653 0 0 0-.336-.863zm-38.315-75.679a21.256 21.256 0 0 1-19.47-12.75c-.014-.033-.041-.056-.06-.085-.026-.042-.049-.085-.084-.12-.039-.039-.087-.065-.134-.094-.026-.016-.045-.039-.073-.051-.004-.002-.008-.001-.011-.002-.057-.024-.117-.031-.179-.039-.027-.003-.053-.015-.08-.015-.042 0-.083.015-.126.023-.046.009-.092.012-.135.03l-.015.003c-.034.015-.058.042-.088.062-.041.026-.083.048-.117.082-.037.037-.061.081-.088.125-.018.029-.044.05-.057.082a21.257 21.257 0 0 1-19.47 12.75 21.256 21.256 0 0 1-19.47-12.75c-.014-.033-.041-.056-.06-.085-.026-.042-.049-.085-.084-.12-.039-.039-.087-.065-.134-.094-.026-.016-.045-.039-.073-.051-.004-.002-.008-.001-.011-.002-.057-.024-.119-.031-.181-.039-.026-.003-.052-.014-.078-.014-.041 0-.082.015-.124.023-.047.009-.094.012-.138.03-.005.002-.01.001-.014.003-.033.015-.056.041-.086.06-.042.026-.085.049-.12.084-.036.036-.06.081-.087.123-.018.029-.044.051-.058.083a21.257 21.257 0 0 1-19.47 12.75.68.68 0 0 0 0 1.36c8.5 0 16.233-4.774 20.093-12.271 3.859 7.497 11.592 12.271 20.093 12.271 8.5 0 16.233-4.774 20.093-12.271 3.859 7.497 11.592 12.271 20.093 12.271.376 0 .68-.305.68-.68s-.301-.682-.677-.682z"/></svg>
