<svg xmlns="http://www.w3.org/2000/svg" viewBox="0 0 512 512"><path fill="#0096D1" d="M425.393 86.607C380.146 41.361 319.988 16.442 256 16.442S131.854 41.361 86.607 86.607C41.361 131.854 16.442 192.012 16.442 256S41.36 380.146 86.607 425.393C131.854 470.64 192.012 495.558 256 495.558s124.146-24.918 169.393-70.165C470.64 380.146 495.558 319.988 495.558 256S470.64 131.854 425.393 86.607zM386.027 242.5c-1.141-38.785-7.187-75.873-17.566-108.605 16.922-4.791 32.653-10.738 47.349-17.882 30.041 34.253 49.265 78.207 52.307 126.487h-82.09zM242.5 466.638c-20.989-5.949-40.869-25.655-57.048-56.984a228.17 228.17 0 0 1-5.844-12.219c11.593-2.202 23.68-3.935 36.277-5.158a427.471 427.471 0 0 1 26.615-1.739v76.1zm27-76.15c21.326.656 42.336 2.977 62.887 6.956a228.196 228.196 0 0 1-5.839 12.209c-16.179 31.329-36.059 51.036-57.048 56.984v-76.149zm-27-26.963c-9.7.314-19.444.927-29.225 1.877-15.111 1.467-29.588 3.622-43.422 6.429-9.922-30.536-15.727-65.521-16.87-102.331H242.5v94.025zM152.984 242.5c1.143-36.816 6.95-71.805 16.874-102.345 23.712 4.87 47.989 7.663 72.642 8.375v93.97h-89.516zM242.5 121.523c-21.327-.657-42.338-2.984-62.891-6.959a228.53 228.53 0 0 1 5.843-12.218c16.179-31.33 36.058-51.037 57.048-56.985v76.162zm27-76.161c20.989 5.948 40.869 25.655 57.048 56.985a227.875 227.875 0 0 1 5.871 12.282c-10.417 1.958-21.302 3.531-32.689 4.73a429.567 429.567 0 0 1-30.229 2.096V45.362zm81.038 44.597c-6.618-12.816-13.906-24.061-21.732-33.669 24.658 9.017 47.19 22.48 66.629 39.411-11.359 4.975-23.438 9.21-36.287 12.755-2.686-6.4-5.554-12.579-8.61-18.497zm-189.076 0c-3.041 5.888-5.896 12.035-8.57 18.401-13.017-3.574-25.073-7.775-36.326-12.659 19.438-16.93 41.97-30.393 66.628-39.41-7.826 9.607-15.114 20.852-21.732 33.668zm-17.892 43.84c-10.398 32.755-16.455 69.878-17.597 108.701h-82.09c3.041-48.266 22.254-92.208 52.281-126.457 14.553 7.039 30.243 12.923 47.406 17.756zM125.973 269.5c1.142 38.814 7.196 75.928 17.589 108.678-16.978 4.812-32.778 10.77-47.359 17.823-30.049-34.255-49.278-78.215-52.32-126.501h82.09zm26.909 134.116a257.5 257.5 0 0 0 8.58 18.425c6.618 12.816 13.906 24.061 21.731 33.669-24.647-9.014-47.171-22.469-66.604-39.389 11.31-4.92 23.428-9.151 36.293-12.705zm206.215.051c12.792 3.547 24.916 7.797 36.26 12.702-19.421 16.898-41.926 30.336-66.55 39.341 7.825-9.608 15.113-20.853 21.732-33.669 3.036-5.88 5.887-12.018 8.558-18.374zm-16.954-31.825c-23.709-4.874-47.99-7.655-72.643-8.367V269.5h89.516c-1.144 36.815-6.95 71.803-16.873 102.342zM269.5 242.5v-94.023a456.82 456.82 0 0 0 33.056-2.267c13.854-1.458 27.024-3.464 39.606-5.993 9.912 30.525 15.712 65.492 16.855 102.283H269.5zm146.193 153.618l.068-.141c-14.598-7.008-30.463-12.952-47.339-17.75 10.403-32.762 16.463-69.894 17.605-108.728h82.089c-3.045 48.343-22.315 92.347-52.423 126.619z"/></svg>
