<svg xmlns="http://www.w3.org/2000/svg" viewBox="0 0 100 100" fill="#E42229">
  <path d="M50 8.3C27 8.3 8.3 27 8.3 50 8.3 73 27 91.7 50 91.7 73 91.7 91.7 73 91.7 50 91.7 27 73 8.3 50 8.3m0 80.4c-21.3 0-38.7-17.4-38.7-38.7 0-21.3 17.4-38.7 38.7-38.7S88.7 28.7 88.7 50c0 21.3-17.4 38.7-38.7 38.7"/>
  <path d="M34.9 56l-3.2 4.3 1.6 2.6-2.4 5.7 1.4 3.5h7.8V71l-4.6-1-.6-1.5 3.3-7.5-3.3-5zM20.9 33.9l-1.8 6.5H21l-.1 10.9h1.4l1.3 4.8 2.8-6.9-.1-9.1zM65.4 56l-3.2 5.1 3.3 7.5-.6 1.4-3.1.2V72H68l1.4-3.5-2.4-5.6 1.6-2.6-3.2-4.3zM79.9 37.6l-7 7.8 3.8 11.2 1-3.4-2.5-7.3 3.1-3.5 3.9 5.8v-4.9l-2.3-5.7z"/>
  <g>
    <path d="M67.8 28.4l-.6 2.6h-2.6l-.4 1.6 2.3-.1-6.4 1.1.8 3.4h3.4l1 3.9-2.3 6.7-1.7 1.6-.9-8.4h-8.7L50 42.4l-1.7-1.6h-8.7l-.9 8.2-1.5-1.4-2.4-6.8v-5.1h6.1l.9-1.8-5.3-1.8h-1.7l.8-.8-.9-.9h-3.3s-1.7-1.6-1.8-1.7v1.7l-1.7-1.7v12.1l1.7-1.7-1.8 3.4h1.8l-1.7 1.7v5.2l-3.5 8.9 1.6 4.6-5 4 1.8 5.2h6.8V71l-3.4-.7-.8-2.4 5.7-4-1.4-4 6.3-8.5-2.2-2.3 4.6 2.8-.5 4.2s9.5 0 9.5.1l2.7 2.5 2.4-2.4H62l-.5-4.3 4.8-2.9-2.2 2.3 6.3 8.5-1.4 4 5.7 4-.8 2.4H72v1.8h5.3l1.8-5.2-5.1-3.7 1.6-4.7-4.7-13.6 3.1-3.5-1.2-2.6 1.6 1.6.1-3.4-1.7-1.6h1.7l-1.7-3.6h1.7l-2.6-2.6-4.1-.8zm-38.2.4"/>
  </g>
</svg>
