<svg height="512" width="512" xmlns="http://www.w3.org/2000/svg"><g fill="none" fill-rule="evenodd" transform="translate(13 3)"><path d="m137.8 3.614a25.399 25.399 0 0 1 10.598 12.524c4.937 12.603 9.688 24.722 14.254 36.358.893-2.996 2.174-5.772 3.894-8.228 8.391-11.98 26.639-20.126 40.785-16.325l.66.177c14.022 3.768 24.728 15.634 28.056 31.096 3.24 13.813 6.307 26.866 9.204 39.16a23.119 23.119 0 0 1 3.884-5.38c11.706-12.125 31.125-14.266 41.96-12.41 10.836 1.856 21.082 14.817 20.973 30.662a2489.88 2489.88 0 0 1 1.296 31.135c2.247-3.063 4.66-5.643 6.954-7.452 7.231-5.702 15.066-9.548 26.351-4.774 11.286 4.774 12.927 15.25 10.152 27.884l-20.621 75.159a269.57 269.57 0 0 1 10.49-.201c53.971 0 99.018 37.933 109.537 88.4 1.523 7.297 29.773 14.856 29.773 22.601 0 8.624-28.442 17.018-30.318 25.077-11.455 49.225-55.905 85.923-108.992 85.923-23.356 0-51.853-9.075-78.265-23.677-.323-.178.409-.842 1.933-1.87l.025-.018-.417.187c-46.778 20.253-87.195-16.406-92.992-20.872-6.754-5.203-1.03-14.538 7.433-24.204l-145.966-54.439c-11.6-4.42-19.737-13.515-18.27-26.44 1.466-12.924 5.73-17.47 14.62-23.412 1.762-1.178 3.84-2.01 6.118-2.538l-20.115-12.332c-14.002-8.979-20.688-25.307-16.611-40.57l1.259-4.72c2.335-8.738 10.593-18.54 24.773-29.409l-14.105-13.983c-12.387-12.191-19.242-30.273-14.705-47.187 4.537-16.913 15.719-30.857 40.841-34.28a24.466 24.466 0 0 1 5.879-.108l-10.195-13.874c-8.304-11.305-5.872-27.201 5.433-35.506a25.4 25.4 0 0 1 22.006-3.954l17.04 4.861 20.55-34.304c7.208-12.034 22.806-15.945 34.841-8.737z" fill="#fff" fill-rule="nonzero"/><path d="m318.452 401.67c31.768-19.876 86.78-17.54 130.074-10.851.664.102-32.877 52.017-78.97 58.039-30.728 4.015-64.58-2.556-101.556-19.712 10.91-4.1 27.728-13.258 50.452-27.476z" fill="#9292a0"/><path d="m198.625 372.806-161.625-88.806m169 80-179.712-164.662m180.712 110.662-165-209m273 132v-90m-36 97-27-143m-5 165-79.294-211.33" stroke="#9292a0" stroke-width="20"/><path d="m225 282-141-233" fill="#d8d8d8" stroke="#9292a0" stroke-width="20"/><g stroke="#000" stroke-width="10"><path d="m186.913 380.144 11.29-12.206-130.063-80.198c-9.59-5.948-24.144-7.624-30.57-3.329-8.818 5.893-11.261 9.51-12.431 19.82-1.094 9.64 4.502 17.172 15.05 21.19l146.724 54.722z"/><path d="m23.452 261.15 173.404 106.32 8.378-10.115c-94.826-94.098-141.977-141.005-143.92-143.186a646.386 646.386 0 0 0 -3.35-3.746c-5.975-6.618-10.178-10.675-14.198-13.394-4.489-3.036-7.806-3.719-10.562-2.334-13.35 10.241-20.947 19.263-22.931 26.688l-1.259 4.72v.003c-3.502 13.108 2.264 27.214 14.438 35.043z"/><path d="m204.263 356.192c.375-2.188.063-5.496-.746-11.442-1.072-7.875-1.359-13.062-.65-19.457a278.5 278.5 0 0 1 .608-5.08c.837-6.46 1.722-11.419 2.676-15.572a111.526 111.526 0 0 1 .487-2.033l-133.256-180.666-.097-.137c-11.395-16.585-19.799-23.054-30.364-21.615-20.813 2.836-32.02 13.225-36.686 30.622-3.844 14.33 1.56 30.693 13.396 42.34zm104.499-192.699c5.65-12.809 10.394-20.91 14.232-24.304 5.758-5.091 13.186-8.387 22.172-4.125 8.987 4.263 8.63 12.908 6.421 24.187l-20.58 72.515"/><path d="m248.228 133.209c0-4.255-4.13-26.577 4.046-35.963 9.942-11.415 28.199-13.456 37.402-11.708 9.203 1.747 17.595 11.41 17.502 26.328 1.66 38.397 3.273 84 3.273 124.152"/><path d="m240.862 261.86 34.023-18.169c-9.38-37.97-23.948-99.08-43.726-183.423-2.916-13.548-12.715-24.162-25.125-27.497-11.6-3.116-27.873 3.63-35.392 14.365-5.982 8.54-4.932 27.254.592 42.143 2.921 7.873 26.184 65.534 69.628 172.58z"/><path d="m206.131 301.734c10.184-12.961 16.559-20.946 19.188-24.03 5.488-6.44 10.714-11.522 15.714-15.247-23.64-57.772-56.068-139.268-97.29-244.495a20.399 20.399 0 0 0 -8.512-10.059c-9.665-5.789-22.193-2.647-27.982 7.017l-22.52 37.596-20.731-5.914a20.4 20.4 0 0 0 -17.674 3.176c-9.08 6.67-11.033 19.436-4.363 28.515z"/><path d="m374.16 455c0 16.756-2.679 29.011 13.84 42m-35.205-41c0 13.475-5.028 31.555 10.205 42m-43 .408 97 .184" stroke-linecap="round"/><path d="m346.69 455c-23.356 0-51.853-9.075-78.265-23.677-2.694-1.49 67.867-36.674 60.095-35.761-9.798 1.15-20.946 12.678-49.526 29.463-50.505 29.661-95.853-11.524-102.02-16.275-16.204-12.483 39.414-48.75 32.362-56.298-17.686-18.932-.052-119.452 137.354-119.452 53.972 0 99.019 37.933 109.538 88.4 1.522 7.296 29.772 14.855 29.772 22.6 0 8.624-28.442 17.018-30.318 25.077-11.455 49.225-55.905 85.923-108.992 85.923z"/><circle cx="405.5" cy="329.5" r="26.5"/></g><circle cx="412.5" cy="323.5" fill="#000" fill-rule="nonzero" r="20.5"/></g></svg>